<mxfile host="Electron" modified="2024-02-08T12:03:03.627Z" agent="Mozilla/5.0 (Macintosh; Intel Mac OS X 10_15_7) AppleWebKit/537.36 (KHTML, like Gecko) draw.io/22.1.2 Chrome/114.0.5735.289 Electron/25.9.4 Safari/537.36" etag="1dnNpL3OF9-2nKAeaU7m" version="22.1.2" type="device">
  <diagram id="ZGsqVFqlMtBjAnkGU3Om" name="Page-1">
    <mxGraphModel dx="1852" dy="793" grid="1" gridSize="10" guides="1" tooltips="1" connect="1" arrows="1" fold="1" page="1" pageScale="1" pageWidth="827" pageHeight="1169" math="0" shadow="0">
      <root>
        <mxCell id="0" />
        <mxCell id="1" parent="0" />
        <mxCell id="S4Y8JMquZLXTr6qlEGW4-5" value="" style="rounded=1;whiteSpace=wrap;html=1;align=left;fillColor=#f0f6ff;strokeColor=#f0f6ff;verticalAlign=bottom;arcSize=10;" parent="1" vertex="1">
          <mxGeometry x="10" y="70" width="860" height="640" as="geometry" />
        </mxCell>
        <mxCell id="S4Y8JMquZLXTr6qlEGW4-6" value="&lt;font style=&quot;font-size: 15px;&quot;&gt;&lt;b&gt;Kyma Control Plane&lt;/b&gt;&lt;/font&gt;" style="text;html=1;strokeColor=none;fillColor=none;align=center;verticalAlign=middle;whiteSpace=wrap;rounded=0;fontSize=19;labelPosition=center;verticalLabelPosition=middle;" parent="1" vertex="1">
          <mxGeometry x="330" y="70" width="180" height="30" as="geometry" />
        </mxCell>
        <mxCell id="BhFGfsFdcyPmZouM8L_V-4" style="edgeStyle=orthogonalEdgeStyle;rounded=1;orthogonalLoop=1;jettySize=auto;html=1;entryX=0;entryY=0.5;entryDx=0;entryDy=0;strokeColor=#666666;verticalAlign=middle;" parent="1" source="-fF3yJ7clYEyhTMX5PpK-2" target="-fF3yJ7clYEyhTMX5PpK-4" edge="1">
          <mxGeometry relative="1" as="geometry">
            <Array as="points">
              <mxPoint x="130" y="145" />
            </Array>
          </mxGeometry>
        </mxCell>
        <mxCell id="BhFGfsFdcyPmZouM8L_V-17" value="creates cluster request" style="edgeLabel;html=1;align=center;verticalAlign=bottom;resizable=0;points=[];labelBackgroundColor=#f0f6ff;" parent="BhFGfsFdcyPmZouM8L_V-4" vertex="1" connectable="0">
          <mxGeometry x="0.4382" y="-3" relative="1" as="geometry">
            <mxPoint x="-5" y="-3" as="offset" />
          </mxGeometry>
        </mxCell>
        <mxCell id="BhFGfsFdcyPmZouM8L_V-5" style="edgeStyle=orthogonalEdgeStyle;rounded=1;orthogonalLoop=1;jettySize=auto;html=1;entryX=0;entryY=0.5;entryDx=0;entryDy=0;strokeColor=#666666;" parent="1" source="-fF3yJ7clYEyhTMX5PpK-2" target="-fF3yJ7clYEyhTMX5PpK-5" edge="1">
          <mxGeometry relative="1" as="geometry">
            <Array as="points">
              <mxPoint x="130" y="615" />
            </Array>
          </mxGeometry>
        </mxCell>
        <mxCell id="BhFGfsFdcyPmZouM8L_V-25" value="creates Kyma resource" style="edgeLabel;html=1;align=center;verticalAlign=middle;resizable=0;points=[];labelBackgroundColor=#f0f6ff;" parent="BhFGfsFdcyPmZouM8L_V-5" vertex="1" connectable="0">
          <mxGeometry x="0.4549" y="1" relative="1" as="geometry">
            <mxPoint x="-1" y="-14" as="offset" />
          </mxGeometry>
        </mxCell>
        <mxCell id="BhFGfsFdcyPmZouM8L_V-6" style="edgeStyle=orthogonalEdgeStyle;rounded=1;orthogonalLoop=1;jettySize=auto;html=1;entryX=0;entryY=0.5;entryDx=0;entryDy=0;strokeColor=#666666;" parent="1" source="-fF3yJ7clYEyhTMX5PpK-2" target="-fF3yJ7clYEyhTMX5PpK-6" edge="1">
          <mxGeometry relative="1" as="geometry">
            <Array as="points">
              <mxPoint x="170" y="480" />
            </Array>
          </mxGeometry>
        </mxCell>
        <mxCell id="BhFGfsFdcyPmZouM8L_V-20" value="applies cluster configuration" style="edgeLabel;html=1;align=center;verticalAlign=middle;resizable=0;points=[];labelBackgroundColor=#f0f6ff;" parent="BhFGfsFdcyPmZouM8L_V-6" vertex="1" connectable="0">
          <mxGeometry x="0.3231" relative="1" as="geometry">
            <mxPoint y="-10" as="offset" />
          </mxGeometry>
        </mxCell>
        <mxCell id="BhFGfsFdcyPmZouM8L_V-8" style="edgeStyle=orthogonalEdgeStyle;rounded=1;orthogonalLoop=1;jettySize=auto;html=1;entryX=0;entryY=0.5;entryDx=0;entryDy=0;strokeColor=#666666;" parent="1" source="-fF3yJ7clYEyhTMX5PpK-2" target="RJMLboHZCN7wz0r4UjpH-1" edge="1">
          <mxGeometry relative="1" as="geometry">
            <Array as="points">
              <mxPoint x="170" y="260" />
            </Array>
          </mxGeometry>
        </mxCell>
        <mxCell id="BhFGfsFdcyPmZouM8L_V-19" value="creates GardenerCluster" style="edgeLabel;html=1;align=center;verticalAlign=middle;resizable=0;points=[];labelBackgroundColor=#f0f6ff;" parent="BhFGfsFdcyPmZouM8L_V-8" vertex="1" connectable="0">
          <mxGeometry x="0.163" y="2" relative="1" as="geometry">
            <mxPoint x="8" y="-8" as="offset" />
          </mxGeometry>
        </mxCell>
        <mxCell id="-fF3yJ7clYEyhTMX5PpK-2" value="&lt;font style=&quot;font-size: 13px;&quot;&gt;Kyma Environment Broker&lt;/font&gt;" style="rounded=1;whiteSpace=wrap;html=1;strokeColor=#666666;" parent="1" vertex="1">
          <mxGeometry x="70" y="345" width="120" height="60" as="geometry" />
        </mxCell>
        <mxCell id="-fF3yJ7clYEyhTMX5PpK-25" style="edgeStyle=orthogonalEdgeStyle;rounded=1;orthogonalLoop=1;jettySize=auto;html=1;entryX=0.5;entryY=0;entryDx=0;entryDy=0;strokeColor=#666666;" parent="1" source="-fF3yJ7clYEyhTMX5PpK-4" target="-fF3yJ7clYEyhTMX5PpK-8" edge="1">
          <mxGeometry relative="1" as="geometry" />
        </mxCell>
        <mxCell id="-fF3yJ7clYEyhTMX5PpK-31" value="&lt;font style=&quot;font-size: 11px;&quot;&gt;provisions Kubernetes cluster&lt;/font&gt;" style="edgeLabel;html=1;align=center;verticalAlign=bottom;resizable=0;points=[];fontSize=12;labelBackgroundColor=#f0f6ff;" parent="-fF3yJ7clYEyhTMX5PpK-25" vertex="1" connectable="0">
          <mxGeometry x="-0.439" y="-1" relative="1" as="geometry">
            <mxPoint x="71" y="-1" as="offset" />
          </mxGeometry>
        </mxCell>
        <mxCell id="-fF3yJ7clYEyhTMX5PpK-4" value="&lt;font style=&quot;font-size: 13px;&quot;&gt;Runtime &lt;br&gt;Provisioner&lt;/font&gt;" style="rounded=1;whiteSpace=wrap;html=1;strokeColor=#666666;" parent="1" vertex="1">
          <mxGeometry x="375" y="115" width="120" height="60" as="geometry" />
        </mxCell>
        <mxCell id="EQ5mby6qL5NSHE-lj0SK-1" style="edgeStyle=orthogonalEdgeStyle;rounded=1;orthogonalLoop=1;jettySize=auto;html=1;entryX=0.75;entryY=1;entryDx=0;entryDy=0;strokeColor=#666666;" parent="1" source="-fF3yJ7clYEyhTMX5PpK-5" target="-fF3yJ7clYEyhTMX5PpK-8" edge="1">
          <mxGeometry relative="1" as="geometry">
            <Array as="points">
              <mxPoint x="980" y="630" />
            </Array>
          </mxGeometry>
        </mxCell>
        <mxCell id="EQ5mby6qL5NSHE-lj0SK-4" value="&lt;span style=&quot;background-color: rgb(240, 246, 255);&quot;&gt;manages modules&lt;/span&gt;" style="edgeLabel;html=1;align=center;verticalAlign=middle;resizable=0;points=[];" parent="EQ5mby6qL5NSHE-lj0SK-1" vertex="1" connectable="0">
          <mxGeometry x="-0.231" y="-1" relative="1" as="geometry">
            <mxPoint x="7" y="-11" as="offset" />
          </mxGeometry>
        </mxCell>
        <mxCell id="EQ5mby6qL5NSHE-lj0SK-2" style="edgeStyle=orthogonalEdgeStyle;rounded=1;orthogonalLoop=1;jettySize=auto;html=1;entryX=0.5;entryY=1;entryDx=0;entryDy=0;strokeColor=#666666;" parent="1" source="-fF3yJ7clYEyhTMX5PpK-5" target="RJMLboHZCN7wz0r4UjpH-4" edge="1">
          <mxGeometry relative="1" as="geometry">
            <Array as="points">
              <mxPoint x="710" y="600" />
            </Array>
          </mxGeometry>
        </mxCell>
        <mxCell id="EQ5mby6qL5NSHE-lj0SK-3" value="reads" style="edgeLabel;html=1;align=center;verticalAlign=middle;resizable=0;points=[];labelBackgroundColor=#f0f6ff;" parent="EQ5mby6qL5NSHE-lj0SK-2" vertex="1" connectable="0">
          <mxGeometry x="-0.6195" y="2" relative="1" as="geometry">
            <mxPoint y="-8" as="offset" />
          </mxGeometry>
        </mxCell>
        <mxCell id="-fF3yJ7clYEyhTMX5PpK-5" value="&lt;font style=&quot;font-size: 13px;&quot;&gt;Lifecycle Manager&lt;/font&gt;" style="rounded=1;whiteSpace=wrap;html=1;strokeColor=#666666;" parent="1" vertex="1">
          <mxGeometry x="375" y="585" width="120" height="60" as="geometry" />
        </mxCell>
        <mxCell id="-fF3yJ7clYEyhTMX5PpK-6" value="&lt;font style=&quot;font-size: 13px;&quot;&gt;Reconciler&lt;/font&gt;" style="rounded=1;whiteSpace=wrap;html=1;strokeColor=#666666;" parent="1" vertex="1">
          <mxGeometry x="375" y="450" width="120" height="60" as="geometry" />
        </mxCell>
        <mxCell id="-fF3yJ7clYEyhTMX5PpK-10" value="" style="edgeStyle=orthogonalEdgeStyle;rounded=1;orthogonalLoop=1;jettySize=auto;html=1;strokeColor=#666666;" parent="1" source="-fF3yJ7clYEyhTMX5PpK-7" target="-fF3yJ7clYEyhTMX5PpK-2" edge="1">
          <mxGeometry relative="1" as="geometry" />
        </mxCell>
        <mxCell id="-fF3yJ7clYEyhTMX5PpK-7" value="" style="shape=actor;whiteSpace=wrap;html=1;fillColor=#0a6ec7;strokeColor=#0a6ec7;" parent="1" vertex="1">
          <mxGeometry x="-120" y="345" width="40" height="60" as="geometry" />
        </mxCell>
        <mxCell id="-fF3yJ7clYEyhTMX5PpK-8" value="SAP BTP, &lt;br&gt;Kyma runtime" style="rounded=1;whiteSpace=wrap;html=1;fontSize=13;strokeColor=#666666;" parent="1" vertex="1">
          <mxGeometry x="890" y="345" width="120" height="60" as="geometry" />
        </mxCell>
        <mxCell id="-fF3yJ7clYEyhTMX5PpK-9" value="&lt;font color=&quot;#ffffff&quot; size=&quot;1&quot;&gt;&lt;b style=&quot;font-size: 14px;&quot;&gt;1&lt;/b&gt;&lt;/font&gt;" style="ellipse;whiteSpace=wrap;html=1;fontSize=12;fillColor=#0a6ec7;strokeColor=#0a6ec7;" parent="1" vertex="1">
          <mxGeometry x="-50" y="385" width="30" height="30" as="geometry" />
        </mxCell>
        <mxCell id="-fF3yJ7clYEyhTMX5PpK-18" value="sends OSB request" style="text;html=1;align=center;verticalAlign=middle;resizable=0;points=[];autosize=1;strokeColor=none;fillColor=none;" parent="1" vertex="1">
          <mxGeometry x="-85" y="353" width="130" height="30" as="geometry" />
        </mxCell>
        <mxCell id="-fF3yJ7clYEyhTMX5PpK-20" value="&lt;font color=&quot;#ffffff&quot; size=&quot;1&quot;&gt;&lt;b style=&quot;font-size: 14px;&quot;&gt;2&lt;/b&gt;&lt;/font&gt;" style="ellipse;whiteSpace=wrap;html=1;fontSize=12;fillColor=#0a6ec7;strokeColor=#0a6ec7;" parent="1" vertex="1">
          <mxGeometry x="220" y="160" width="30" height="30" as="geometry" />
        </mxCell>
        <mxCell id="-fF3yJ7clYEyhTMX5PpK-22" value="&lt;font color=&quot;#ffffff&quot; size=&quot;1&quot;&gt;&lt;b style=&quot;font-size: 14px;&quot;&gt;8&lt;/b&gt;&lt;/font&gt;" style="ellipse;whiteSpace=wrap;html=1;fontSize=12;fillColor=#0a6ec7;strokeColor=#0a6ec7;" parent="1" vertex="1">
          <mxGeometry x="220" y="630" width="30" height="30" as="geometry" />
        </mxCell>
        <mxCell id="-fF3yJ7clYEyhTMX5PpK-24" value="&lt;font color=&quot;#ffffff&quot; size=&quot;1&quot;&gt;&lt;b style=&quot;font-size: 14px;&quot;&gt;6&lt;/b&gt;&lt;/font&gt;" style="ellipse;whiteSpace=wrap;html=1;fontSize=12;fillColor=#0a6ec7;strokeColor=#0a6ec7;" parent="1" vertex="1">
          <mxGeometry x="260" y="490" width="30" height="30" as="geometry" />
        </mxCell>
        <mxCell id="-fF3yJ7clYEyhTMX5PpK-29" value="&lt;font color=&quot;#ffffff&quot; size=&quot;1&quot;&gt;&lt;b style=&quot;font-size: 14px;&quot;&gt;5&lt;/b&gt;&lt;/font&gt;" style="ellipse;whiteSpace=wrap;html=1;fontSize=12;fillColor=#0a6ec7;strokeColor=#0a6ec7;" parent="1" vertex="1">
          <mxGeometry x="580" y="280" width="30" height="30" as="geometry" />
        </mxCell>
        <mxCell id="RJMLboHZCN7wz0r4UjpH-1" value="&lt;font style=&quot;font-size: 13px;&quot;&gt;Infrastructure Manager&lt;/font&gt;" style="rounded=1;whiteSpace=wrap;html=1;strokeColor=#666666;" parent="1" vertex="1">
          <mxGeometry x="375" y="230" width="120" height="60" as="geometry" />
        </mxCell>
        <mxCell id="BhFGfsFdcyPmZouM8L_V-14" style="edgeStyle=orthogonalEdgeStyle;rounded=1;orthogonalLoop=1;jettySize=auto;html=1;strokeColor=#666666;" parent="1" target="RJMLboHZCN7wz0r4UjpH-4" edge="1">
          <mxGeometry relative="1" as="geometry">
            <Array as="points">
              <mxPoint x="480" y="450" />
              <mxPoint x="480" y="380" />
            </Array>
            <mxPoint x="480" y="450" as="sourcePoint" />
          </mxGeometry>
        </mxCell>
        <mxCell id="BhFGfsFdcyPmZouM8L_V-22" value="reads" style="edgeLabel;html=1;align=center;verticalAlign=middle;resizable=0;points=[];labelBackgroundColor=#f0f6ff;" parent="BhFGfsFdcyPmZouM8L_V-14" vertex="1" connectable="0">
          <mxGeometry x="0.3754" y="4" relative="1" as="geometry">
            <mxPoint y="-8" as="offset" />
          </mxGeometry>
        </mxCell>
        <mxCell id="RJMLboHZCN7wz0r4UjpH-4" value="&lt;font style=&quot;font-size: 13px;&quot;&gt;Secreet with kubeconfig&lt;/font&gt;" style="rounded=1;whiteSpace=wrap;html=1;strokeColor=#666666;dashed=1;" parent="1" vertex="1">
          <mxGeometry x="650" y="345" width="120" height="60" as="geometry" />
        </mxCell>
        <mxCell id="RJMLboHZCN7wz0r4UjpH-17" value="&lt;font color=&quot;#ffffff&quot; size=&quot;1&quot;&gt;&lt;b style=&quot;font-size: 14px;&quot;&gt;3&lt;/b&gt;&lt;/font&gt;" style="ellipse;whiteSpace=wrap;html=1;fontSize=12;fillColor=#0a6ec7;strokeColor=#0a6ec7;" parent="1" vertex="1">
          <mxGeometry x="760" y="160" width="30" height="30" as="geometry" />
        </mxCell>
        <mxCell id="BhFGfsFdcyPmZouM8L_V-9" style="edgeStyle=orthogonalEdgeStyle;rounded=1;orthogonalLoop=1;jettySize=auto;html=1;entryX=0.5;entryY=0;entryDx=0;entryDy=0;strokeColor=#666666;" parent="1" source="RJMLboHZCN7wz0r4UjpH-1" target="RJMLboHZCN7wz0r4UjpH-4" edge="1">
          <mxGeometry relative="1" as="geometry">
            <Array as="points">
              <mxPoint x="710" y="260" />
            </Array>
          </mxGeometry>
        </mxCell>
        <mxCell id="BhFGfsFdcyPmZouM8L_V-21" value="creates and maintains" style="edgeLabel;html=1;align=center;verticalAlign=middle;resizable=0;points=[];labelBackgroundColor=#f0f6ff;" parent="BhFGfsFdcyPmZouM8L_V-9" vertex="1" connectable="0">
          <mxGeometry x="-0.3467" y="3" relative="1" as="geometry">
            <mxPoint x="2" y="-7" as="offset" />
          </mxGeometry>
        </mxCell>
        <mxCell id="BhFGfsFdcyPmZouM8L_V-18" value="&lt;font color=&quot;#ffffff&quot; size=&quot;1&quot;&gt;&lt;b style=&quot;font-size: 14px;&quot;&gt;4&lt;/b&gt;&lt;/font&gt;" style="ellipse;whiteSpace=wrap;html=1;fontSize=12;fillColor=#0a6ec7;strokeColor=#0a6ec7;" parent="1" vertex="1">
          <mxGeometry x="260" y="270" width="30" height="30" as="geometry" />
        </mxCell>
        <mxCell id="BhFGfsFdcyPmZouM8L_V-27" value="&lt;font color=&quot;#ffffff&quot; size=&quot;1&quot;&gt;&lt;b style=&quot;font-size: 14px;&quot;&gt;9&lt;/b&gt;&lt;/font&gt;" style="ellipse;whiteSpace=wrap;html=1;fontSize=12;fillColor=#0a6ec7;strokeColor=#0a6ec7;" parent="1" vertex="1">
          <mxGeometry x="760" y="650" width="30" height="30" as="geometry" />
        </mxCell>
        <mxCell id="BhFGfsFdcyPmZouM8L_V-29" value="&lt;font color=&quot;#ffffff&quot; size=&quot;1&quot;&gt;&lt;b style=&quot;font-size: 14px;&quot;&gt;7&lt;/b&gt;&lt;/font&gt;" style="ellipse;whiteSpace=wrap;html=1;fontSize=12;fillColor=#0a6ec7;strokeColor=#0a6ec7;" parent="1" vertex="1">
          <mxGeometry x="580" y="490" width="30" height="30" as="geometry" />
        </mxCell>
        <mxCell id="EQ5mby6qL5NSHE-lj0SK-6" style="edgeStyle=orthogonalEdgeStyle;rounded=1;orthogonalLoop=1;jettySize=auto;html=1;entryX=0.325;entryY=1.05;entryDx=0;entryDy=0;entryPerimeter=0;strokeColor=#666666;" parent="1" source="-fF3yJ7clYEyhTMX5PpK-6" target="-fF3yJ7clYEyhTMX5PpK-8" edge="1">
          <mxGeometry relative="1" as="geometry">
            <Array as="points">
              <mxPoint x="929" y="480" />
            </Array>
          </mxGeometry>
        </mxCell>
        <mxCell id="EQ5mby6qL5NSHE-lj0SK-7" value="&lt;span style=&quot;background-color: rgb(240, 246, 255);&quot;&gt;reconciles Kyma&lt;/span&gt;" style="edgeLabel;html=1;align=center;verticalAlign=middle;resizable=0;points=[];" parent="EQ5mby6qL5NSHE-lj0SK-6" vertex="1" connectable="0">
          <mxGeometry x="-0.6087" y="1" relative="1" as="geometry">
            <mxPoint x="1" y="-9" as="offset" />
          </mxGeometry>
        </mxCell>
      </root>
    </mxGraphModel>
  </diagram>
</mxfile>
